<svg xmlns="http://www.w3.org/2000/svg" viewBox="0 0 27.517 27.517"><path d="M10.603 17.06v-1.333q0-1.52.62-2.558.62-1.054 2.2-2.046 1.256-.79 1.798-1.426.558-.636.558-1.457 0-.65-.59-1.023-.59-.388-1.535-.388-2.34 0-5.473 1.66L6.03 4.27q3.86-2.2 8.062-2.2 3.457 0 5.426 1.52 1.97 1.52 1.97 4.14 0 1.876-.884 3.256-.868 1.364-2.79 2.59-1.628 1.054-2.046 1.55-.403.48-.403 1.147v.79zm-.667 5.426q0-1.426.822-2.2.837-.775 2.45-.775 1.55 0 2.372.79.837.775.837 2.186 0 1.41-.868 2.186-.853.775-2.34.775-1.535 0-2.403-.76-.868-.775-.868-2.2z"/><path d="M26.987 13.76a13.23 13.23 0 0 1-13.229 13.229A13.23 13.23 0 0 1 .529 13.759C.53 6.453 6.452.53 13.758.53s13.23 5.923 13.23 13.23z" fill="none" stroke="#000" stroke-width="1.058" stroke-dasharray="2.11666654, 1.05833327"/></svg>
